<?xml version="1.0" encoding="utf-8"?>
<!-- Generator: Adobe Illustrator 15.0.0, SVG Export Plug-In . SVG Version: 6.00 Build 0)  -->
<!DOCTYPE svg PUBLIC "-//W3C//DTD SVG 1.1//EN" "http://www.w3.org/Graphics/SVG/1.1/DTD/svg11.dtd">
<svg version="1.1" id="Layer_1" xmlns="http://www.w3.org/2000/svg" xmlns:xlink="http://www.w3.org/1999/xlink" x="0px" y="0px"
	 width="290.051px" height="290.05px" viewBox="0 0 290.051 290.05" enable-background="new 0 0 290.051 290.05"
	 xml:space="preserve">
<path fill="#FFFFFF" d="M289.939,99.211c-0.026-0.183-0.072-0.358-0.103-0.541c-0.062-0.352-0.126-0.703-0.218-1.046
	c-0.054-0.206-0.13-0.404-0.194-0.602c-0.1-0.306-0.199-0.611-0.32-0.908c-0.086-0.206-0.184-0.412-0.278-0.61
	c-0.131-0.283-0.268-0.558-0.424-0.824c-0.114-0.199-0.236-0.39-0.354-0.58c-0.168-0.26-0.34-0.512-0.527-0.756
	c-0.137-0.183-0.281-0.366-0.427-0.542c-0.198-0.228-0.404-0.457-0.622-0.671c-0.163-0.167-0.324-0.335-0.496-0.488
	c-0.229-0.206-0.465-0.405-0.705-0.595c-0.187-0.145-0.37-0.29-0.564-0.427c-0.073-0.046-0.137-0.107-0.206-0.153L151.938,2.094
	c-4.188-2.792-9.64-2.792-13.828,0L5.55,90.468c-0.069,0.046-0.134,0.107-0.206,0.153c-0.195,0.137-0.378,0.282-0.561,0.427
	c-0.244,0.19-0.481,0.389-0.705,0.595c-0.176,0.153-0.336,0.321-0.5,0.488c-0.217,0.214-0.423,0.443-0.618,0.671
	c-0.149,0.176-0.294,0.359-0.431,0.542C2.346,93.588,2.17,93.84,2.006,94.1c-0.126,0.19-0.244,0.381-0.358,0.58
	c-0.153,0.266-0.29,0.541-0.424,0.824c-0.095,0.198-0.194,0.404-0.278,0.61c-0.122,0.297-0.221,0.602-0.321,0.908
	c-0.065,0.198-0.137,0.396-0.194,0.602c-0.092,0.343-0.153,0.694-0.218,1.046c-0.03,0.183-0.076,0.358-0.099,0.541
	C0.041,99.745,0,100.287,0,100.836v88.374c0,0.549,0.041,1.091,0.114,1.633c0.023,0.176,0.069,0.358,0.099,0.533
	c0.065,0.352,0.126,0.702,0.218,1.046c0.057,0.206,0.129,0.404,0.194,0.603c0.1,0.305,0.199,0.61,0.321,0.915
	c0.084,0.207,0.183,0.405,0.278,0.604c0.134,0.281,0.271,0.556,0.424,0.831c0.114,0.191,0.232,0.381,0.358,0.572
	c0.164,0.26,0.34,0.512,0.523,0.756c0.137,0.19,0.282,0.365,0.431,0.541c0.195,0.229,0.401,0.458,0.618,0.672
	c0.164,0.167,0.324,0.335,0.5,0.486c0.224,0.208,0.461,0.406,0.705,0.597c0.183,0.146,0.366,0.29,0.561,0.427
	c0.072,0.046,0.137,0.107,0.206,0.152l132.561,88.375c2.094,1.396,4.505,2.098,6.916,2.098c2.407,0,4.817-0.702,6.912-2.098
	L284.5,199.577c0.069-0.045,0.133-0.106,0.206-0.152c0.194-0.137,0.378-0.281,0.564-0.427c0.24-0.19,0.477-0.389,0.705-0.597
	c0.172-0.151,0.333-0.319,0.496-0.486c0.218-0.214,0.424-0.443,0.622-0.672c0.146-0.176,0.29-0.351,0.427-0.541
	c0.188-0.244,0.359-0.496,0.527-0.756c0.118-0.191,0.24-0.381,0.354-0.572c0.156-0.275,0.293-0.55,0.424-0.831
	c0.095-0.198,0.192-0.396,0.278-0.604c0.121-0.305,0.221-0.61,0.32-0.915c0.064-0.198,0.141-0.396,0.194-0.603
	c0.092-0.344,0.156-0.694,0.218-1.046c0.03-0.175,0.076-0.357,0.103-0.533c0.068-0.542,0.111-1.084,0.111-1.633v-88.374
	C290.051,100.287,290.008,99.745,289.939,99.211 M157.489,35.753l97.653,65.098l-43.618,29.181l-54.035-36.146V35.753z
	 M132.561,35.753v58.133l-54.032,36.146l-43.623-29.181L132.561,35.753z M24.928,124.166l31.183,20.857l-31.183,20.858V124.166z
	 M132.561,254.293l-97.655-65.1l43.623-29.172l54.032,36.139V254.293z M145.027,174.509l-44.084-29.486l44.084-29.486l44.081,29.486
	L145.027,174.509z M157.489,254.293V196.16l54.035-36.139l43.618,29.172L157.489,254.293z M265.122,165.881l-31.18-20.858
	l31.18-20.857V165.881z"/>
</svg>
