<svg xmlns="http://www.w3.org/2000/svg" width="50" height="48.473" viewBox="0 0 50 48.473"><path fill="#ffffff" d="M43.012 38.545c-1.984 1.412-3.91 2.498-5.766 3.26-3.423 1.447-7.093 2.174-11.024 2.174-5.748 0-10.622-1.557-14.617-4.686-4.505-3.537-6.768-8.326-6.768-14.365 0-5.445 1.925-10.111 5.78-14.004 4.259-4.294 9.904-6.455 16.944-6.455 3.826 0 7.271.795 10.33 2.363 4.883 2.48 7.322 6.568 7.322 12.259 0 3.844-.894 6.936-2.682 9.262-1.788 2.326-3.576 3.494-5.353 3.494-.912 0-1.568-.273-1.984-.818-.417-.555-.622-1.131-.622-1.754 0-.4.064-.861.199-1.383.137-.533.358-1.344.665-2.439l3.972-13.465h-5.865l-1.116 3.906c-.308-1.195-.918-2.262-1.829-3.195-1.199-1.197-2.882-1.793-5.056-1.793-3.702 0-6.827 1.635-9.378 4.895-2.546 3.271-3.813 6.777-3.813 10.529 0 3.225.824 5.742 2.494 7.539 1.668 1.801 3.752 2.703 6.253 2.703 2.461 0 4.576-.799 6.328-2.393.977-.891 1.856-2.082 2.635-3.58l-.044.576-.012.48c0 1.135.51 2.244 1.54 3.32 1.02 1.078 2.488 1.613 4.388 1.613 3.664 0 6.92-1.678 9.776-5.041 2.857-3.369 4.291-7.397 4.291-12.088 0-5.961-2.257-10.738-6.771-14.339-4.28-3.418-9.685-5.12-16.201-5.12-8.005 0-14.577 2.489-19.703 7.477-4.889 4.712-7.325 10.47-7.325 17.257 0 6.062 1.952 11.309 5.865 15.734 4.719 5.336 11.37 8.004 19.953 8.004 3.681 0 7.236-.596 10.667-1.781 3.427-1.191 6.601-2.924 9.541-5.201l-2.263-3.473-.751.528zm-14.735-11.582c-1.413 3.359-3.23 5.043-5.442 5.043-1.27 0-2.246-.461-2.938-1.396-.691-.932-1.041-2.152-1.041-3.658 0-2.508.774-5.1 2.325-7.779 1.556-2.682 3.402-4.021 5.559-4.021 1.114 0 2.011.377 2.668 1.121.662.75.997 1.664.997 2.766 0 1.916-.709 4.561-2.128 7.924z"/></svg>
