<svg xmlns="http://www.w3.org/2000/svg" width="49.999" height="21.713" viewBox="0 0 49.999 21.713"><g fill="#ffffff"><path d="M-40.967 41.049c-2.961-.1-5.79.893-8.307 2.736 3.528 2.102 7.621 3.365 12.019 3.512 2.302.074 4.537-.17 6.669-.675-2.833-3.392-6.429-5.446-10.381-5.573zM-35.631-2.296c-13.799-.452-25.349 10.284-25.797 23.98-.194 5.943 1.733 11.467 5.111 15.851 4.354-3.321 9.591-5.196 15.183-5.012 7.229.233 13.66 3.862 18.206 9.513.233.287.457.588.685.892 6.295-4.317 10.517-11.434 10.788-19.61.448-13.696-10.377-25.163-24.176-25.614zm8.158 33.806c-.22.354-.605.541-1.002.528-.192-.003-.388-.06-.564-.171-.004 0-.228-.141-.69-.387-.464-.248-1.146-.588-1.998-.943-1.697-.718-4.081-1.513-6.738-1.816-.815-.094-1.601-.15-2.355-.174-3.383-.111-6.038.387-7.12.635l-.528.13c-.606.177-1.237-.171-1.413-.765-.176-.599.17-1.223.771-1.4.077-.02 3.505-1.014 8.363-.855.809.025 1.66.083 2.543.187 5.898.683 10.294 3.436 10.372 3.472v.008c.533.324.69 1.023.359 1.551zm3.135-6.125c-.277.443-.761.677-1.248.66-.249-.007-.488-.077-.708-.214l-.185-.11-.604-.331c-.534-.282-1.319-.677-2.299-1.089-1.956-.82-4.69-1.734-7.748-2.085-.936-.106-1.844-.171-2.71-.2-3.889-.127-6.947.447-8.188.731l-.606.151c-.754.218-1.542-.21-1.763-.961-.221-.746.211-1.531.964-1.744.099-.032 4.062-1.178 9.687-.993.936.026 1.921.097 2.937.214 6.839.795 11.926 3.968 12.024 4.026.664.414.864 1.283.447 1.945zm3.361-6.215c-.333.533-.914.814-1.504.795-.291-.01-.581-.093-.849-.255l-.217-.13c-.157-.094-.396-.228-.712-.395-.627-.332-1.549-.792-2.706-1.275-2.303-.972-5.528-2.047-9.132-2.462-1.103-.127-2.172-.2-3.189-.23-5.346-.181-9.359.772-10.202.992l-.16.038c-.905.265-1.851-.248-2.118-1.148-.262-.895.254-1.838 1.161-2.099.112-.035 4.795-1.388 11.43-1.171 1.109.035 2.269.113 3.472.254 8.072.938 14.066 4.688 14.189 4.752.797.496 1.038 1.543.537 2.334z"/></g><path fill="#a1a7ac" d="M.762 18.688c-.015.123-.092.194-.196.194-.104 0-.188-.081-.202-.194l-.364-2.728.363-2.774c.014-.113.099-.194.202-.194.104 0 .182.081.196.194l.437 2.774-.436 2.728zM2.621 20.35c-.019.117-.104.202-.208.202s-.193-.085-.207-.202l-.491-4.39.491-4.488c.014-.122.104-.202.207-.202.104 0 .189.08.208.202l.555 4.488-.555 4.39zM4.627 21.095c-.015.142-.118.25-.253.25-.132 0-.235-.108-.25-.25l-.467-5.135.467-5.327c.015-.146.118-.246.25-.246.135 0 .238.099.253.246l.528 5.327-.528 5.135zM6.646 21.256c-.009.165-.139.287-.292.287-.149 0-.278-.122-.293-.287l-.438-5.296.438-5.473c.015-.165.144-.288.293-.288.155 0 .283.123.292.288l.505 5.473-.505 5.296zM8.69 21.303v-.005c-.015.188-.158.34-.335.34-.185 0-.326-.151-.335-.335l-.417-5.343.418-5.077c.009-.189.148-.331.335-.331.175 0 .32.142.335.331l.472 5.077-.473 5.343zM10.748 21.303c-.017.207-.185.373-.383.373-.197 0-.367-.166-.377-.373l-.392-5.338.392-8.263c.01-.212.18-.377.377-.377.198 0 .366.165.383.377l.438 8.263-.438 5.338zM12.82 21.27v-.005c-.015.236-.199.42-.425.42-.227 0-.411-.184-.421-.415l-.363-5.305.363-10.15c.01-.236.194-.42.421-.42.226 0 .41.184.425.42l.41 10.15-.41 5.305zM14.906 21.218v-.005c-.015.26-.218.458-.463.458-.253 0-.455-.198-.465-.453l-.342-5.253.342-11.002c.01-.26.212-.458.465-.458.248 0 .45.198.463.458l.382 11.002-.382 5.253zM17.006 21.18c-.005.283-.229.505-.505.505-.278 0-.5-.222-.505-.5l-.316-5.22.316-11.368c.005-.281.227-.505.505-.505.276 0 .5.225.505.505l.356 11.368-.356 5.22v-.005zM19.13 21.138v-.005c-.01.307-.253.547-.555.547-.298 0-.543-.24-.548-.542l-.292-5.173.292-11.078c.005-.307.25-.547.548-.547.302 0 .545.241.555.547l.32 11.078-.32 5.173zM21.263 21.104v-.004c-.005.335-.264.59-.59.59-.325 0-.585-.255-.59-.585l-.267-5.135.267-10.674c.005-.335.265-.59.59-.59.326 0 .585.255.59.59l.298 10.674-.298 5.134zM23.415 21.071v-.005c-.005.35-.29.633-.633.633-.345 0-.632-.283-.637-.628l-.238-5.106.238-12.699c.005-.349.292-.632.637-.632.343 0 .628.283.633.632l.269 12.704-.269 5.101zM25.558 21.001v-.005c-.005.368-.307.67-.68.67-.363 0-.67-.302-.675-.665l-.276-5.031.276-13.853c.005-.373.312-.675.675-.675.373 0 .675.302.68.675l.302 13.853-.302 5.031zM43.85 21.713l-17.051-.009c-.363-.038-.653-.35-.661-.728v-19.518c.008-.356.13-.542.595-.727 1.194-.462 2.546-.731 3.931-.731 5.67 0 10.319 4.347 10.81 9.888.731-.307 1.534-.472 2.376-.472 3.398 0 6.149 2.755 6.149 6.148.003 3.393-2.751 6.149-6.149 6.149"/><path fill="#a1a7ac" d="M-135.83 22.162c.086.027.133.115.109.201-.023.067-.086.113-.149.113l-.052-.004c-4.224-1.291-9.443-1.469-11.183-1.529-1.346 2.957-3.949 4.266-8.042 4.877-.502.076-1.028.143-1.574.199 1.626 1.023 2.09 2.309 2.09 5.773 0 3.468-.047 3.935-.038 4.73.019 1.309 1.938 1.939 1.868 2.359-.076.419-1.607.353-2.323.104-2.034-.711-1.83-2.4-1.83-2.4l-.064-4.637s.138-2.498-.792-2.498v7.594c0 1.652 1.164 2.154 1.164 2.764 0 1.053-2.119-.1-2.763-.758-.991-.991-.877-3.104-.86-4.77.026-1.611-.015-5.139-.015-5.139l-.666.015s.273 7.703-.355 9.102c-.815 1.802-3.275 2.423-3.275 1.598 0-.55.602-.37.938-1.612.289-1.049.189-8.896.189-8.896s-.787.464-.787 1.938c0 .669-.019 4.514-.019 5.656 0 1.443-2.043 2.261-3.024 2.261-.498 0-1.119-.023-1.119-.289 0-.663 1.87-1.058 1.87-2.438 0-1.202-.026-4.293-.026-4.293s-.943.161-2.283.161c-3.389 0-4.465-2.159-4.973-3.37-.664-1.574-1.529-2.316-2.439-2.908-.562-.363-.689-.789-.042-.915 3-.562 3.769 3.401 5.769 4.036 1.432.451 3.266.256 4.181-.336.121-1.214.996-2.264 1.721-2.812l-.137-.015c-5.008-.507-7.992-2.275-9.542-5.09-5.328.129-8.353.883-10.571 1.439l-.467.118-.041.006c-.076 0-.138-.048-.154-.124-.026-.086.033-.174.119-.197l.467-.113c2.209-.557 5.214-1.309 10.48-1.449-.146-.291-.279-.59-.398-.903-2.043-.017-8.35.274-10.514.808l-.038.009c-.076 0-.145-.051-.161-.124-.019-.088.036-.175.119-.199 2.145-.526 8.303-.82 10.481-.815-.488-1.444-.707-3.095-.707-4.944 0-3.279 1.02-4.512 2.394-6.265-1.055-3.738.372-6.29.372-6.29s2.204-.457 6.371 2.526c2.264-.963 8.281-1.051 11.138-.213 1.749-1.16 4.946-2.797 6.236-2.337.353.563 1.104 2.201.46 5.805.436.792 2.716 2.476 2.721 7.233-.036 1.755-.218 3.237-.557 4.49 5.433-.045 8.63.404 10.832.809.085.021.149.102.135.191-.021.074-.085.134-.161.134l-.028-.006c-2.204-.405-5.402-.854-10.872-.8-.095.317-.204.616-.322.91 1.863.058 6.978.258 11.139 1.529z"/><g fill="#a1a7ac"><path d="M-82.928-.077h-42.609c-2.049 0-3.699 1.621-3.699 3.612v43.104c0 1.991 1.65 3.604 3.699 3.604h42.609c2.035 0 3.691-1.612 3.691-3.604v-43.104c.001-1.991-1.656-3.612-3.691-3.612zm-30.376 41.999h-7.558v-22.721h7.558v22.721zm-3.775-25.818h-.055c-2.528 0-4.167-1.751-4.167-3.93 0-2.224 1.682-3.925 4.269-3.925s4.171 1.701 4.222 3.925c0 2.18-1.631 3.93-4.269 3.93zm31.005 25.818h-7.556v-12.156c0-3.051-1.09-5.137-3.822-5.137-2.086 0-3.329 1.402-3.874 2.761-.207.494-.25 1.163-.25 1.847v12.686h-7.55s.095-20.592 0-22.721h7.55v3.233c.995-1.555 2.79-3.765 6.808-3.765 4.972 0 8.699 3.249 8.694 10.231v13.021zM-101.576 22.5v-.065l-.047.065h.047z"/></g><path fill="#a1a7ac" d="M-198.303 35.318c-1.984 1.413-3.91 2.498-5.766 3.26-3.423 1.447-7.093 2.174-11.024 2.174-5.748 0-10.622-1.556-14.617-4.686-4.505-3.536-6.768-8.325-6.768-14.364 0-5.445 1.925-10.112 5.78-14.004 4.259-4.294 9.904-6.454 16.944-6.454 3.826 0 7.271.794 10.33 2.362 4.883 2.48 7.322 6.569 7.322 12.259 0 3.844-.894 6.937-2.682 9.262-1.788 2.327-3.576 3.494-5.353 3.494-.912 0-1.568-.273-1.984-.817-.417-.555-.622-1.132-.622-1.754 0-.401.064-.862.199-1.384.137-.532.358-1.343.665-2.438l3.972-13.466h-5.865l-1.116 3.907c-.308-1.196-.918-2.263-1.829-3.195-1.199-1.198-2.882-1.793-5.056-1.793-3.702 0-6.827 1.635-9.378 4.895-2.546 3.271-3.813 6.777-3.813 10.528 0 3.225.824 5.742 2.494 7.539 1.668 1.801 3.752 2.704 6.253 2.704 2.461 0 4.576-.799 6.328-2.393.977-.892 1.856-2.082 2.635-3.58l-.044.575-.012.48c0 1.136.51 2.245 1.54 3.32 1.02 1.079 2.488 1.613 4.388 1.613 3.664 0 6.92-1.677 9.776-5.041 2.857-3.371 4.291-7.398 4.291-12.089 0-5.962-2.257-10.739-6.771-14.339-4.279-3.418-9.685-5.121-16.2-5.121-8.005 0-14.577 2.488-19.703 7.477-4.89 4.713-7.325 10.47-7.325 17.258 0 6.062 1.952 11.309 5.865 15.734 4.719 5.335 11.37 8.003 19.953 8.003 3.681 0 7.236-.595 10.667-1.781 3.427-1.19 6.601-2.923 9.541-5.201l-2.263-3.473-.752.529zm-14.734-11.581c-1.413 3.359-3.23 5.042-5.442 5.042-1.27 0-2.246-.461-2.938-1.396-.691-.933-1.041-2.152-1.041-3.658 0-2.509.774-5.1 2.325-7.779 1.556-2.683 3.402-4.022 5.559-4.022 1.114 0 2.011.377 2.668 1.121.662.75.997 1.665.997 2.767 0 1.917-.71 4.561-2.128 7.925z"/></svg>
